<svg width="161" height="160" fill="none" xmlns="http://www.w3.org/2000/svg"><g filter="url(#filter0_d_27_245)"><rect x="20.5" y="20" width="120" height="120" rx="20" fill="#fff" shape-rendering="crispEdges"/><path d="M107.893 78.442h-1.832L85.42 65.506c.225-.587.343-1.21.348-1.838V52.056a1.057 1.057 0 00-1.054-1.04 1.053 1.053 0 00-1.053 1.04v7.416a5.22 5.22 0 00-6.322 0v-7.416A1.057 1.057 0 0076.286 51a1.053 1.053 0 00-1.054 1.056v11.612a5.23 5.23 0 00.348 1.837L54.92 78.442h-1.813A2.116 2.116 0 0051 80.553v25.336A2.108 2.108 0 0053.107 108h16.11a1.052 1.052 0 001.053-1.056 1.056 1.056 0 00-1.054-1.055H53.107V80.554h2.075c.011 0 .022.004.033.004-.012-.013 50.517 0 50.519-.004a.155.155 0 00.063 0h2.096v25.335h-16.11a1.052 1.052 0 00-1.053 1.055A1.058 1.058 0 0091.784 108h16.109a2.109 2.109 0 002.107-2.111V80.554a2.108 2.108 0 00-2.107-2.111zM80.5 60.501a3.16 3.16 0 012.212.94 3.17 3.17 0 01-2.212 5.394 3.158 3.158 0 01-2.212-.94 3.17 3.17 0 010-4.454 3.158 3.158 0 012.212-.94zM58.895 78.442l17.799-11.145A5.285 5.285 0 0080.5 68.92a5.276 5.276 0 003.806-1.621l17.782 11.144H58.895z" fill="#3B69CB"/><path d="M68 85a.97.97 0 00-.707.303 1.041 1.041 0 00-.293.733v3.928c0 .275.105.538.293.733A.983.983 0 0068 91c.265 0 .52-.11.707-.303.188-.195.293-.458.293-.733v-3.928a1.067 1.067 0 00-.293-.733A.97.97 0 0068 85zm-10 1.044v14.912c.005.278.113.544.3.739a.967.967 0 00.7.305.967.967 0 00.7-.305 1.1 1.1 0 00.3-.74v-14.91a1.1 1.1 0 00-.3-.74A.97.97 0 0059 85a.97.97 0 00-.7.305 1.1 1.1 0 00-.3.74zm45 14.911v-14.91a1.1 1.1 0 00-.3-.74.969.969 0 00-.7-.305.969.969 0 00-.7.305 1.1 1.1 0 00-.3.74v14.91c.005.279.113.545.3.74a.966.966 0 00.7.305.966.966 0 00.7-.305c.187-.195.295-.461.3-.74zm-9-10.978v-3.954a1.065 1.065 0 00-.3-.725A.98.98 0 0093 85a.979.979 0 00-.7.299 1.065 1.065 0 00-.3.724v3.954c.005.273.113.533.3.725A.98.98 0 0093 91a.979.979 0 00.7-.299c.187-.19.295-.451.3-.724zM80.5 86a11.5 11.5 0 00-8.128 3.38A11.557 11.557 0 0069 97.528c.627 15.301 22.373 15.291 23 0a11.557 11.557 0 00-3.372-8.148A11.5 11.5 0 0080.5 86zm0 20.96a9.406 9.406 0 01-6.651-2.764 9.454 9.454 0 01-2.758-6.668c.491-12.503 18.327-12.492 18.818 0a9.454 9.454 0 01-2.758 6.668 9.406 9.406 0 01-6.651 2.764z" fill="#3B69CB"/><path d="M81.987 102.956h-.455v-6.934a1.013 1.013 0 00-.302-.723A1.034 1.034 0 0080.5 95h-1.487a1.04 1.04 0 00-.718.306 1.017 1.017 0 000 1.432c.19.19.448.3.718.306h.455v5.912h-.455c-.27.006-.528.115-.717.307a1.016 1.016 0 000 1.431c.19.191.447.301.717.306h2.974a1.04 1.04 0 00.718-.306 1.017 1.017 0 000-1.432 1.038 1.038 0 00-.718-.306zM80.5 93c.4-.006.781-.166 1.062-.447a1.489 1.489 0 000-2.106A1.534 1.534 0 0080.5 90c-.4.006-.781.166-1.062.447a1.489 1.489 0 000 2.106c.28.28.662.441 1.062.447z" fill="#3B69CB"/></g><defs><filter id="filter0_d_27_245" x=".5" y="0" width="160" height="160" filterUnits="userSpaceOnUse" color-interpolation-filters="sRGB"><feFlood flood-opacity="0" result="BackgroundImageFix"/><feColorMatrix in="SourceAlpha" values="0 0 0 0 0 0 0 0 0 0 0 0 0 0 0 0 0 0 127 0" result="hardAlpha"/><feOffset/><feGaussianBlur stdDeviation="10"/><feComposite in2="hardAlpha" operator="out"/><feColorMatrix values="0 0 0 0 0 0 0 0 0 0 0 0 0 0 0 0 0 0 0.2 0"/><feBlend in2="BackgroundImageFix" result="effect1_dropShadow_27_245"/><feBlend in="SourceGraphic" in2="effect1_dropShadow_27_245" result="shape"/></filter></defs></svg>