<svg width="161" height="160" fill="none" xmlns="http://www.w3.org/2000/svg"><g filter="url(#filter0_d_27_284)"><rect x="20.5" y="20" width="120" height="120" rx="20" fill="#fff" shape-rendering="crispEdges"/><path d="M70.5 93h-2a1 1 0 100 2h2a1 1 0 000-2zm28 0h-24a1 1 0 100 2h24a1 1 0 000-2zm-28-6h-2a1 1 0 100 2h2a1 1 0 000-2zm28 0h-24a1 1 0 100 2h24a1 1 0 000-2zm-28-6h-2a1 1 0 100 2h2a1 1 0 000-2zm28 0h-24a1 1 0 100 2h24a1 1 0 000-2zm-28-6h-2a1 1 0 100 2h2a1 1 0 000-2zm28 0h-24a1 1 0 100 2h24a1 1 0 000-2zm-28-6h-2a1 1 0 100 2h2a1 1 0 000-2zm28 0h-24a1 1 0 100 2h24a1 1 0 000-2z" fill="#3B69CB"/><path d="M105.487 64.937a.94.94 0 00-.051-.257c-.011-.032-.019-.063-.033-.094a1 1 0 00-.2-.293l-14-14a1 1 0 00-.293-.2c-.031-.014-.062-.022-.093-.033a.992.992 0 00-.259-.052c-.017.003-.036-.008-.058-.008h-28a1 1 0 00-1 1v3h-5a1 1 0 00-1 1v54a1 1 0 001 1h42a1 1 0 001-1v-5h5a1 1 0 001-1V65c0-.022-.011-.041-.013-.063zM91.5 53.414L102.086 64H91.5V53.414zm6 54.586h-40V56h4v47a1 1 0 001 1h35v4zm6-6h-40V52h26v13a1 1 0 001 1h13v36z" fill="#3B69CB"/><path d="M74.5 59h-6a1 1 0 00-1 1v6a1 1 0 001 1h6a1 1 0 001-1v-6a1 1 0 00-1-1zm-1 6h-4v-4h4v4z" fill="#3B69CB"/></g><defs><filter id="filter0_d_27_284" x=".5" y="0" width="160" height="160" filterUnits="userSpaceOnUse" color-interpolation-filters="sRGB"><feFlood flood-opacity="0" result="BackgroundImageFix"/><feColorMatrix in="SourceAlpha" values="0 0 0 0 0 0 0 0 0 0 0 0 0 0 0 0 0 0 127 0" result="hardAlpha"/><feOffset/><feGaussianBlur stdDeviation="10"/><feComposite in2="hardAlpha" operator="out"/><feColorMatrix values="0 0 0 0 0 0 0 0 0 0 0 0 0 0 0 0 0 0 0.2 0"/><feBlend in2="BackgroundImageFix" result="effect1_dropShadow_27_284"/><feBlend in="SourceGraphic" in2="effect1_dropShadow_27_284" result="shape"/></filter></defs></svg>