<svg width="161" height="160" fill="none" xmlns="http://www.w3.org/2000/svg"><g filter="url(#filter0_d_27_296)"><rect x="20.5" y="20" width="120" height="120" rx="20" fill="#fff" shape-rendering="crispEdges"/><g clip-path="url(#clip0_27_296)" fill="#3B69CB"><path d="M68.262 74.484a1.18 1.18 0 00-.829-.343c-.308 0-.61.125-.828.343a1.18 1.18 0 00-.343.828c0 .309.125.61.343.829.218.218.52.343.828.343.309 0 .611-.125.829-.343a1.18 1.18 0 00.343-.829c0-.308-.125-.61-.343-.828z"/><path d="M106.984 50h-46.64a3.52 3.52 0 00-3.516 3.516v19.453a3.52 3.52 0 003.516 3.515h2.11a1.172 1.172 0 000-2.343h-2.11a1.173 1.173 0 01-1.172-1.172V53.516c0-.647.526-1.172 1.172-1.172h46.64c.646 0 1.172.525 1.172 1.172v19.453c0 .646-.526 1.172-1.172 1.172h-7.838c-.31 0-.609.123-.829.343l-3.859 3.859-3.858-3.86a1.172 1.172 0 00-.83-.343h-9.138a6.882 6.882 0 00-.294-.653 6.668 6.668 0 00-4.021-3.355l-1.694-.515a1.172 1.172 0 00-1.443.722l-2.662 7.358a8.867 8.867 0 01-4.101 4.774l-2.5 1.361a3.34 3.34 0 00-2.583-1.221h-7.488a3.35 3.35 0 00-3.346 3.346v20.697A3.35 3.35 0 0053.846 110h7.488a3.347 3.347 0 002.794-1.508l1.196.469A15.001 15.001 0 0070.82 110h15.812a4.307 4.307 0 004.302-4.303 4.27 4.27 0 00-.581-2.155 4.311 4.311 0 003.015-4.106 4.27 4.27 0 00-.61-2.204 4.31 4.31 0 002.872-4.057 4.31 4.31 0 00-3.083-4.126c.362-.63.57-1.359.57-2.136a4.307 4.307 0 00-4.302-4.302h-9.397l1.314-3.902a6.73 6.73 0 00.354-2.225h8.2l4.344 4.345a1.168 1.168 0 001.657 0l4.344-4.345h7.353a3.52 3.52 0 003.516-3.515V53.516A3.52 3.52 0 00106.984 50zm-44.647 56.654c0 .552-.45 1.002-1.003 1.002h-7.488c-.552 0-1.002-.45-1.002-1.002V85.957c0-.553.45-1.003 1.002-1.003h2.572v14.428a1.171 1.171 0 102.344 0V84.954h2.572c.438 0 .81.283.947.675.01.056.023.113.042.168.008.052.014.105.014.16v20.697zm26.478-21.7c1.08 0 1.959.879 1.959 1.96a1.96 1.96 0 01-1.959 1.958h-6.358a1.172 1.172 0 000 2.344h8.87a1.96 1.96 0 011.96 1.959c0 1.08-.879 1.959-1.96 1.959h-8.87a1.172 1.172 0 000 2.343h6.608a1.96 1.96 0 011.96 1.96c0 1.079-.88 1.958-1.96 1.958h-6.608a1.172 1.172 0 000 2.344h4.175a1.96 1.96 0 011.959 1.959 1.96 1.96 0 01-1.96 1.958H70.82a12.66 12.66 0 01-4.64-.877l-1.5-.588V86.085l2.857-1.555a11.207 11.207 0 005.184-6.035l2.284-6.312.63.191a4.344 4.344 0 012.62 2.185 4.343 4.343 0 01.256 3.402l-1.835 5.447a1.172 1.172 0 001.11 1.546h11.029z"/><path d="M105.133 61.364a1.86 1.86 0 00-1.512-1.273l-2.073-.3-.927-1.879a1.86 1.86 0 00-1.679-1.043c-.718 0-1.361.4-1.678 1.044l-.927 1.879-2.073.301a1.86 1.86 0 00-1.51 1.275 1.86 1.86 0 00.474 1.919l1.5 1.461-.354 2.065a1.86 1.86 0 00.746 1.83 1.865 1.865 0 001.971.142l1.854-.975 1.854.974a1.862 1.862 0 001.972-.143 1.86 1.86 0 00.744-1.83l-.355-2.065 1.5-1.462a1.862 1.862 0 00.473-1.92zm-3.787 1.877a1.873 1.873 0 00-.538 1.657l.235 1.367-1.228-.645a1.872 1.872 0 00-1.742 0l-1.227.646.234-1.367a1.871 1.871 0 00-.54-1.657l-.993-.967 1.373-.2a1.87 1.87 0 001.409-1.024l.614-1.244.614 1.243a1.87 1.87 0 001.409 1.024l1.373.199-.993.968zm-11.121-1.877a1.86 1.86 0 00-1.511-1.273l-2.073-.3-.928-1.879a1.86 1.86 0 00-1.678-1.043c-.719 0-1.362.4-1.68 1.044l-.926 1.879-2.072.301a1.86 1.86 0 00-1.511 1.275 1.86 1.86 0 00.474 1.919l1.5 1.461-.353 2.065a1.86 1.86 0 00.745 1.83 1.865 1.865 0 001.971.142l1.854-.975 1.854.974a1.86 1.86 0 001.972-.143 1.86 1.86 0 00.744-1.83l-.355-2.065 1.5-1.462a1.861 1.861 0 00.473-1.92zm-3.787 1.877a1.872 1.872 0 00-.538 1.657l.235 1.367-1.228-.645a1.872 1.872 0 00-1.742 0l-1.227.646.234-1.367a1.872 1.872 0 00-.539-1.657l-.993-.967 1.372-.2a1.872 1.872 0 001.41-1.025l.613-1.243.614 1.243c.272.553.8.935 1.41 1.024l1.372.199-.993.968zm-11.121-1.877a1.86 1.86 0 00-1.511-1.273l-2.073-.3-.927-1.879a1.86 1.86 0 00-1.679-1.043c-.718 0-1.361.4-1.679 1.044l-.926 1.879-2.073.301a1.86 1.86 0 00-1.51 1.275 1.86 1.86 0 00.473 1.919l1.5 1.461-.353 2.065a1.86 1.86 0 00.745 1.83 1.865 1.865 0 001.972.142l1.853-.975 1.855.974a1.86 1.86 0 001.971-.143 1.86 1.86 0 00.744-1.83l-.354-2.065 1.5-1.462a1.86 1.86 0 00.472-1.92zm-3.786 1.877a1.872 1.872 0 00-.538 1.657l.235 1.367L70 65.62a1.872 1.872 0 00-1.742 0l-1.228.646.234-1.367a1.872 1.872 0 00-.538-1.657l-.994-.967 1.372-.2a1.872 1.872 0 001.41-1.025l.613-1.243.614 1.243c.273.553.8.935 1.41 1.024l1.373.199-.993.968zM57.59 102.425c-.647 0-1.172.524-1.172 1.172v.018a1.172 1.172 0 002.344 0v-.018c0-.648-.524-1.172-1.172-1.172z"/></g></g><defs><clipPath id="clip0_27_296"><path fill="#fff" transform="translate(50.5 50)" d="M0 0h60v60H0z"/></clipPath><filter id="filter0_d_27_296" x=".5" y="0" width="160" height="160" filterUnits="userSpaceOnUse" color-interpolation-filters="sRGB"><feFlood flood-opacity="0" result="BackgroundImageFix"/><feColorMatrix in="SourceAlpha" values="0 0 0 0 0 0 0 0 0 0 0 0 0 0 0 0 0 0 127 0" result="hardAlpha"/><feOffset/><feGaussianBlur stdDeviation="10"/><feComposite in2="hardAlpha" operator="out"/><feColorMatrix values="0 0 0 0 0 0 0 0 0 0 0 0 0 0 0 0 0 0 0.2 0"/><feBlend in2="BackgroundImageFix" result="effect1_dropShadow_27_296"/><feBlend in="SourceGraphic" in2="effect1_dropShadow_27_296" result="shape"/></filter></defs></svg>