<svg width="133" height="132" fill="none" xmlns="http://www.w3.org/2000/svg"><g filter="url(#filter0_d_27_184)"><rect x="6.5" y="6" width="120" height="120" rx="20" fill="#fff" shape-rendering="crispEdges"/><g clip-path="url(#clip0_27_184)" fill="#3B69CB"><path d="M58.682 53.636v-7.272c0-.546-.364-.91-.91-.91-.545 0-.908.364-.908.91v7.272c-1.637.364-2.819 1.91-2.819 3.637 0 1.09.455 2 1.091 2.727l-3.272 5.546c-.273.454-.091 1 .363 1.272.455.273 1 .091 1.273-.363l3.273-5.546c.363.091.727.182 1.09.182 2.092 0 3.728-1.727 3.728-3.727-.091-1.91-1.364-3.364-2.91-3.728zm-.91 5.546c-1.09 0-1.908-.91-1.908-1.91 0-1.09.909-1.908 1.909-1.908 1.09 0 1.909.909 1.909 1.909s-.91 1.909-1.91 1.909zm.001-16.091c.545 0 .909-.364.909-.91v-1.817c0-.546-.364-.91-.91-.91-.545 0-.908.364-.908.91v1.818a.91.91 0 00.909.909zm0 28.273c-.546 0-.91.363-.91.909v1.818c0 .545.364.909.91.909.545 0 .909-.364.909-.91v-1.817c0-.455-.455-.91-.91-.91zM43.591 57.273c0-.546-.364-.91-.91-.91h-1.817c-.546 0-.91.364-.91.91 0 .545.364.909.91.909h1.818c.454 0 .909-.455.909-.91zm28.273 0c0 .545.363.909.909.909h1.818c.545 0 .909-.364.909-.91 0-.545-.364-.908-.91-.908h-1.817a.911.911 0 00-.91.909zm-29.273-7.728l1.636.91c.455.272 1 .09 1.273-.364.273-.455.091-1-.364-1.273L43.5 47.91c-.455-.273-1-.09-1.273.364-.181.545-.09 1.09.364 1.272zm8.091 19.91c-.455-.273-1-.091-1.273.363l-.909 1.637c-.273.454-.09 1 .364 1.272.454.273 1 .091 1.272-.363l.91-1.637c.181-.454.09-1-.364-1.272zM64.773 45c.454.273 1 .09 1.272-.364l.91-1.636c.272-.455.09-1-.364-1.273-.455-.272-1-.09-1.273.364l-.909 1.636c-.182.455-.09 1 .364 1.273zm-14.273.09c.455-.272.545-.817.273-1.272l-.91-1.636c-.272-.455-.818-.546-1.272-.273-.455.273-.546.818-.273 1.273l.91 1.636c.272.364.817.546 1.272.273zm-6.182 19.092l-1.636.909c-.455.273-.546.818-.273 1.273.273.454.818.545 1.273.272l1.636-.909c.455-.273.546-.818.273-1.273-.273-.454-.818-.545-1.273-.272zm26.818-13.818l1.637-.91c.454-.272.545-.818.272-1.272-.272-.455-.818-.546-1.272-.273l-1.637.91c-.454.272-.545.817-.272 1.272.272.364.818.454 1.272.273zm2.546-12.546h15.727v21.818l-3.727-3.727a.879.879 0 00-1.273 0 .879.879 0 000 1.273l5.273 5.273a.825.825 0 00.636.272c.273 0 .455-.09.636-.272l5.273-5.273a.879.879 0 000-1.273.879.879 0 00-1.273 0l-3.727 3.727V36.91c0-.545-.363-.909-.909-.909H73.682c-.546 0-.91.364-.91.91a.91.91 0 00.91.908z"/><path d="M95.864 69.09c-.182-.09-16.91-9.272-17.091-9.272.09-.909.181-1.727.181-2.545C78.954 45.545 69.41 36 57.682 36 46.045 36 36.5 45.545 36.5 57.273c0 11.727 9.545 21.273 21.182 21.273.909 0 2-.092 3.09-.273v6.181c0 .273.183.637.455.728l16.819 10.636c.181.091.272.182.454.182s.364-.09.454-.09l17-9c.273-.183.455-.456.455-.82V69.91c0-.364-.182-.637-.545-.82zm-2.273.82l-4 2.18L74.5 63.819l4-2.09 15.09 8.181zm-7.636 4.636L70.317 66l2.273-1.273 16.09 8.819v4.545l-2.18 1.364v-4.091c0-.364-.273-.728-.546-.819zM78.59 78.09l-15-8.455 4.818-2.545 15.273 8.273-5.091 2.727zm-20.91-1.455c-10.636 0-19.363-8.727-19.363-19.363 0-10.728 8.727-19.455 19.364-19.455 10.727 0 19.454 8.727 19.454 19.455 0 .909-.09 2.181-.272 3.272 0 0-15.455 8.273-15.637 8.273-.272.182-.454.546-.454.818v6.819c-1.091.09-2.182.181-3.091.181zm4.91 7.273V71.182l15 8.454v13.819l-15-9.546zm16.818 9.636V79.728l5.182-2.818V81c0 .364.182.636.455.818a.826.826 0 00.908 0l4.092-2.272c.272-.182.454-.455.454-.819v-5.09l4-2.183v14.092l-15.09 8z"/><path d="M75.591 82.454l-9.91-5.727c-.454-.273-1-.09-1.272.364-.273.454-.09 1 .364 1.273L74.682 84c.454.273 1 .09 1.273-.364.181-.363 0-1-.364-1.181zm-.091 3.728l-9.91-5.818c-.454-.273-1-.091-1.272.363-.272.455-.09 1 .364 1.273l9.909 5.727c.455.273 1 .091 1.273-.363.181-.455 0-1-.364-1.182z"/></g></g><defs><clipPath id="clip0_27_184"><path fill="#fff" transform="translate(36.5 36)" d="M0 0h60v60H0z"/></clipPath><filter id="filter0_d_27_184" x=".5" y="0" width="132" height="132" filterUnits="userSpaceOnUse" color-interpolation-filters="sRGB"><feFlood flood-opacity="0" result="BackgroundImageFix"/><feColorMatrix in="SourceAlpha" values="0 0 0 0 0 0 0 0 0 0 0 0 0 0 0 0 0 0 127 0" result="hardAlpha"/><feOffset/><feGaussianBlur stdDeviation="3"/><feComposite in2="hardAlpha" operator="out"/><feColorMatrix values="0 0 0 0 0 0 0 0 0 0 0 0 0 0 0 0 0 0 0.1 0"/><feBlend in2="BackgroundImageFix" result="effect1_dropShadow_27_184"/><feBlend in="SourceGraphic" in2="effect1_dropShadow_27_184" result="shape"/></filter></defs></svg>