<svg width="133" height="132" fill="none" xmlns="http://www.w3.org/2000/svg"><g filter="url(#filter0_d_27_172)"><rect x="6.5" y="6" width="120" height="120" rx="20" fill="#fff" shape-rendering="crispEdges"/><g clip-path="url(#clip0_27_172)" fill="#3B69CB"><path d="M66.5 50.766a1.172 1.172 0 10.001 2.344 1.172 1.172 0 00-.001-2.344zM47.047 71.86a1.172 1.172 0 10-.001-2.345 1.172 1.172 0 000 2.344z"/><path d="M75.875 39.047c-10.55 0-19.21 7.274-19.879 16.436C45.95 55.987 36.5 63.232 36.5 73.03c0 4.095 1.62 8.063 4.57 11.207a7.127 7.127 0 01-1.883 6.715 1.172 1.172 0 00.829 2c3.342 0 6.563-1.31 8.956-3.62 2.331.795 5.373 1.276 8.153 1.276 10.549 0 19.207-7.272 19.878-16.432 2.454-.109 5.006-.562 7.025-1.25a12.927 12.927 0 008.956 3.62 1.172 1.172 0 00.829-2 7.127 7.127 0 01-1.883-6.715c2.95-3.144 4.57-7.112 4.57-11.207 0-10.182-10.177-17.578-20.625-17.578zm-18.75 49.219c-2.766 0-5.917-.543-8.029-1.383a1.172 1.172 0 00-1.298.297 10.574 10.574 0 01-5.26 3.121 9.477 9.477 0 00.715-6.975 1.168 1.168 0 00-.286-.495c-2.659-2.738-4.123-6.219-4.123-9.8 0-8.258 8.371-15.234 18.281-15.234 9.358 0 17.578 6.507 17.578 15.234 0 8.4-7.885 15.235-17.578 15.235zm32.908-21.841c-.135.139-.233.31-.286.495a9.477 9.477 0 00.714 6.975 10.571 10.571 0 01-5.26-3.121 1.173 1.173 0 00-1.297-.297c-1.83.727-4.44 1.231-6.904 1.353-.343-4.431-2.553-8.597-6.332-11.69h15.285a1.172 1.172 0 100-2.343H67.067c-2.66-1.354-5.647-2.144-8.721-2.31.673-7.87 8.278-14.096 17.529-14.096 9.91 0 18.281 6.976 18.281 15.234 0 3.581-1.464 7.062-4.123 9.8z"/><path d="M66.5 69.516H51.734a1.172 1.172 0 100 2.343H66.5a1.172 1.172 0 100-2.343zm0 7.031H47.047a1.172 1.172 0 100 2.344H66.5a1.172 1.172 0 100-2.344zm19.453-25.781H71.187a1.172 1.172 0 100 2.343h14.766a1.172 1.172 0 100-2.343z"/></g></g><defs><clipPath id="clip0_27_172"><path fill="#fff" transform="translate(36.5 36)" d="M0 0h60v60H0z"/></clipPath><filter id="filter0_d_27_172" x=".5" y="0" width="132" height="132" filterUnits="userSpaceOnUse" color-interpolation-filters="sRGB"><feFlood flood-opacity="0" result="BackgroundImageFix"/><feColorMatrix in="SourceAlpha" values="0 0 0 0 0 0 0 0 0 0 0 0 0 0 0 0 0 0 127 0" result="hardAlpha"/><feOffset/><feGaussianBlur stdDeviation="3"/><feComposite in2="hardAlpha" operator="out"/><feColorMatrix values="0 0 0 0 0 0 0 0 0 0 0 0 0 0 0 0 0 0 0.1 0"/><feBlend in2="BackgroundImageFix" result="effect1_dropShadow_27_172"/><feBlend in="SourceGraphic" in2="effect1_dropShadow_27_172" result="shape"/></filter></defs></svg>