<svg width="133" height="132" fill="none" xmlns="http://www.w3.org/2000/svg"><g filter="url(#filter0_d_27_126)"><rect x="6.5" y="6" width="120" height="120" rx="20" fill="#fff" shape-rendering="crispEdges"/><path d="M94.617 42.985l-5.486-5.486a1.876 1.876 0 00-1.354-.562H57.822a1.917 1.917 0 00-1.915 1.915v22.02a17.24 17.24 0 00-.975-.03c-9.435 0-17.11 7.676-17.11 17.11 0 9.435 7.675 17.11 17.11 17.11 5.995 0 11.28-3.1 14.336-7.781h23.995a1.917 1.917 0 001.915-1.915V44.34c0-.52-.194-.987-.56-1.354zm-5.498-2.847l2.858 2.858H89.12v-2.858zm-34.187 53.05c-8.4 0-15.235-6.835-15.235-15.235 0-8.4 6.834-15.235 15.235-15.235 8.4 0 15.234 6.834 15.234 15.235 0 8.4-6.834 15.234-15.234 15.234zm38.331-7.782H70.331a17.005 17.005 0 001.71-7.453c0-8.463-6.177-15.51-14.259-16.871v-22.23c0-.02.02-.04.04-.04h29.422v4.633c0 .787.64 1.426 1.426 1.426h4.633v40.495c0 .02-.02.04-.04.04zm-17.72-24.022a.936.936 0 00.469-.125l8.137-4.699a.937.937 0 00.469-.811v-9.397a.937.937 0 00-.469-.812l-8.137-4.698a.937.937 0 00-.938 0l-8.138 4.698a.937.937 0 00-.468.812v9.397c0 .334.178.644.468.811l8.138 4.699a.936.936 0 00.469.125zM72.169 48.02l6.263-3.616.484.28-6.262 3.616-.485-.28zm-.937 1.624l.484.28v1.535l-.484-.28v-1.535zm9.56-3.877l1.013.585-6.262 3.616-1.014-.586 6.263-3.615zM76.48 58.823v-7.231l6.263-3.616v7.231l-6.263 3.616zm-.937-16.087l1.014.586-6.263 3.615-1.014-.585 6.263-3.616zm-7.2 5.24l1.014.585v3.16c0 .334.178.644.468.811l2.36 1.363a.937.937 0 001.406-.812v-2.077l1.014.586v7.231l-6.262-3.616v-7.231zm.038 29.895a1.498 1.498 0 00-.702-.915c-2.388-1.379-4.764-2.662-7.063-3.903a577.79 577.79 0 01-3.204-1.738c.147-.19.295-.373.445-.547a1.349 1.349 0 00.655-.011c.353-.095.648-.321.83-.637l.698-1.207c.182-.316.23-.685.136-1.038a1.359 1.359 0 00-.637-.831l-5.305-3.063a1.37 1.37 0 00-1.869.5l-.697 1.208a1.364 1.364 0 00.181 1.613c-.597 1.706-1.694 3.609-2.873 4.984a1.36 1.36 0 00-.66.013 1.36 1.36 0 00-.832.637l-.697 1.207a1.358 1.358 0 00-.136 1.038c.095.353.321.648.637.83l5.305 3.064a1.358 1.358 0 001.038.136 1.36 1.36 0 00.83-.637l.698-1.207c.182-.316.23-.685.136-1.038a1.362 1.362 0 00-.32-.578c.076-.216.16-.435.25-.655 1.048.636 2.093 1.28 3.11 1.907 2.225 1.37 4.524 2.787 6.912 4.165a1.497 1.497 0 001.144.15c.39-.104.715-.354.916-.702l.924-1.6c.201-.349.255-.755.15-1.145zm-17.719-4.68a18.635 18.635 0 002.813-4.88l2.693 1.555a18.639 18.639 0 00-2.819 4.876l-2.687-1.55zm3.074-7.333l4.427 2.556-.19.33-4.427-2.557.19-.329zm-.644 11.34l-4.427-2.556.19-.33 4.427 2.556-.19.33zm12.775 2.163c-2.252-1.308-4.434-2.652-6.547-3.955-1.07-.659-2.17-1.336-3.273-2.005.099-.178.201-.355.306-.53 1.13.621 2.267 1.235 3.373 1.832 2.184 1.18 4.44 2.397 6.698 3.693l-.557.965zM54.74 82.245h-.419v-1.35a.938.938 0 00-.937-.937h-7.128a.938.938 0 00-.938.938v1.349h-.546c-.675 0-1.223.549-1.223 1.223v2.712c0 .675.549 1.224 1.223 1.224h9.968c.675 0 1.224-.55 1.224-1.224v-2.712c0-.674-.55-1.223-1.224-1.223zm-7.547-.412h5.253v.412h-5.253v-.412zm6.896 3.696h-8.665v-1.41h8.665v1.41zm35.324-20.184c0 .518-.42.938-.937.938H70.6a.938.938 0 010-1.875h17.877c.517 0 .937.42.937.937zm0 5.218c0 .518-.42.938-.937.938H73.184a.938.938 0 010-1.876h15.293c.517 0 .937.42.937.938zm0 5.218c0 .518-.42.937-.937.937H74.5a.937.937 0 110-1.875h13.977c.517 0 .937.42.937.938zm0 5.218c0 .517-.42.937-.937.937H74.385a.938.938 0 010-1.875h14.092c.517 0 .937.42.937.938z" fill="#3B69CB"/></g><defs><filter id="filter0_d_27_126" x=".5" y="0" width="132" height="132" filterUnits="userSpaceOnUse" color-interpolation-filters="sRGB"><feFlood flood-opacity="0" result="BackgroundImageFix"/><feColorMatrix in="SourceAlpha" values="0 0 0 0 0 0 0 0 0 0 0 0 0 0 0 0 0 0 127 0" result="hardAlpha"/><feOffset/><feGaussianBlur stdDeviation="3"/><feComposite in2="hardAlpha" operator="out"/><feColorMatrix values="0 0 0 0 0 0 0 0 0 0 0 0 0 0 0 0 0 0 0.1 0"/><feBlend in2="BackgroundImageFix" result="effect1_dropShadow_27_126"/><feBlend in="SourceGraphic" in2="effect1_dropShadow_27_126" result="shape"/></filter></defs></svg>