<svg width="133" height="132" fill="none" xmlns="http://www.w3.org/2000/svg"><g filter="url(#filter0_d_27_133)"><rect x="6.5" y="6" width="120" height="120" rx="20" fill="#fff" shape-rendering="crispEdges"/><mask id="mask0_27_133" style="mask-type:luminance" maskUnits="userSpaceOnUse" x="36" y="36" width="61" height="60"><path d="M36.5 36h60v60h-60V36z" fill="#fff"/></mask><g mask="url(#mask0_27_133)" stroke="#3B69CB" stroke-width="2" stroke-miterlimit="10" stroke-linecap="round" stroke-linejoin="round"><path d="M68.918 48.296H57.05a.586.586 0 01-.586-.586v-6.38h6.505a3.665 3.665 0 01-.078-1.171 3.636 3.636 0 013.352-3.271 3.626 3.626 0 013.788 4.442h6.505v6.38a.586.586 0 01-.586.586h-2.93M54.553 56.36l2.97 2.854 4.225-4.796m3.522 2.398h12.42m-23.137 9.883l2.97 2.855 4.23-4.785m3.517 2.344h12.42m-2.05 10.68h2.051m-12.421 0h6.27M60.7 80.488h-5.391v-5.39h5.39v5.39z"/><path d="M87.184 67.64v26.31c0 .646-.525 1.171-1.172 1.171H46.988a1.172 1.172 0 01-1.172-1.172V42.504c0-.647.525-1.172 1.172-1.172H62.97m9.17 0h13.872c.647 0 1.172.525 1.172 1.172v21.035"/><path d="M53.258 91.606h-3.926V44.848h7.031m17.93 46.758H57.359m19.278-46.758h7.031V82.23m0 0h-9.375v9.376l9.375-9.375z"/></g></g><defs><filter id="filter0_d_27_133" x=".5" y="0" width="132" height="132" filterUnits="userSpaceOnUse" color-interpolation-filters="sRGB"><feFlood flood-opacity="0" result="BackgroundImageFix"/><feColorMatrix in="SourceAlpha" values="0 0 0 0 0 0 0 0 0 0 0 0 0 0 0 0 0 0 127 0" result="hardAlpha"/><feOffset/><feGaussianBlur stdDeviation="3"/><feComposite in2="hardAlpha" operator="out"/><feColorMatrix values="0 0 0 0 0 0 0 0 0 0 0 0 0 0 0 0 0 0 0.1 0"/><feBlend in2="BackgroundImageFix" result="effect1_dropShadow_27_133"/><feBlend in="SourceGraphic" in2="effect1_dropShadow_27_133" result="shape"/></filter></defs></svg>