<svg width="60" height="60" fill="none" xmlns="http://www.w3.org/2000/svg"><g clip-path="url(#clip0_27_629)" fill="#3B69CB"><path d="M47.092 34.607l-7.58-4.677a1.185 1.185 0 00-1.614.382 1.186 1.186 0 00.383 1.613l7.58 4.677a1.18 1.18 0 001.612-.382 1.181 1.181 0 00-.381-1.613zm-12.184-7.312a1.18 1.18 0 00-1.142 1.44c.069.29.268.554.53.72.181.115.391.183.61.183.41 0 .783-.207.998-.556.457-.744-.118-1.787-.996-1.787zm-12.135 2.957c-.33-.527-1.092-.697-1.616-.366 0 0-7.521 4.743-7.534 4.75a1.18 1.18 0 00-.366 1.616c.205.325.601.516.993.527.22.007.44-.044.623-.16 0 0 7.53-4.748 7.534-4.752a1.18 1.18 0 00.366-1.615zm2.972-3.048c-.544 0-1.021.383-1.141.913a1.186 1.186 0 001.143 1.431c.544 0 1.023-.382 1.143-.913a1.181 1.181 0 00-1.145-1.43z"/><path d="M59.712 53.375a1.172 1.172 0 00-1.653-.116c-1.25 1.087-2.406 2.213-4.045 2.666-1.823.504-3.555.107-5.205-.718l6.103-20.534a1.171 1.171 0 00-.516-1.336l-5.646-3.422v-9.99c0-.647-.525-1.172-1.172-1.172h-2.344v-3.516c0-.647-.524-1.172-1.172-1.172h-3.69V10.55c0-.647-.526-1.172-1.173-1.172h-5.683V1.175c0-.647-.525-1.172-1.172-1.172h-4.688c-.647 0-1.172.525-1.172 1.172v8.203h-5.683c-.647 0-1.172.525-1.172 1.172v3.515h-3.692c-.647 0-1.171.525-1.171 1.172v3.516h-2.344c-.647 0-1.172.525-1.172 1.172v9.99l-5.646 3.422a1.172 1.172 0 00-.516 1.336l6.09 20.492c-.104-.35-1.979-.58-2.31-.623C5.455 54.1 2.86 55.809.403 57.947A1.172 1.172 0 00.288 59.6c.405.466 1.16.544 1.653.115 2.532-2.201 5.387-3.879 8.737-2.204 3.031 1.516 6.168 2.166 9.325.504 2.546-1.34 5.002-2.497 7.844-1.144l2.92 1.391a8.868 8.868 0 007.829-.075c1.525-.763 3.076-1.778 4.818-1.898 1.708-.117 3.359.52 4.86 1.27a8.965 8.965 0 006.433.583c1.96-.56 3.388-1.808 4.89-3.114a1.17 1.17 0 00.115-1.653zM46.407 21.097v7.398l-12.21-7.398h12.21zM28.828 2.347h2.344v7.03h-2.344v-7.03zm-6.855 9.375h16.054v2.343H21.973v-2.343zm-8.38 9.375h12.212l-12.211 7.398v-7.398zm15.235 33.646c0-.208-1.67-.593-1.889-.64-2.04-.441-4.229-.161-6.078.812-1.341.706-2.636 1.53-4.17 1.728h-.009a6.71 6.71 0 01-2.681-.21l-6.409-21.56 21.236-12.868v32.738zM17.11 18.753v-2.344h25.782v2.344H17.109zm29.534 35.515c.013-.363-3.286-.36-3.507-.336-2.034.215-3.794 1.261-5.589 2.159-2.12 1.06-4.302.755-6.375-.232V22.005l21.236 12.867-5.765 19.396z"/></g><defs><clipPath id="clip0_27_629"><path fill="#fff" d="M0 0h60v60H0z"/></clipPath></defs></svg>