<svg width="60" height="60" fill="none" xmlns="http://www.w3.org/2000/svg"><path d="M49.342 48.614a.879.879 0 00-.879.88v8.263a.486.486 0 01-.485.485h-4.725V40.934a.879.879 0 00-1.757 0v17.308h-9.514l2.759-3.035a1.576 1.576 0 00.376-1.29l-2.628-15.524.708-1.066c.391.278.693.546 1.258.546a1.54 1.54 0 001.378-.852l2.771-5.555 6.314 2.445c.228.098 3.545 1.592 3.545 5.536v5.945a.879.879 0 101.758 0v-5.945c0-5.197-4.45-7.086-4.639-7.164a.391.391 0 00-.017-.006l-10.508-4.07v-2.464a8.236 8.236 0 003.117-5.417 3.805 3.805 0 002.235-.912 3.725 3.725 0 001.296-2.827c0-.904-.326-1.766-.907-2.438v-3.256C40.798 4.887 35.912 0 29.905 0 23.9 0 19.012 4.887 19.012 10.893v3.341a3.529 3.529 0 00-.906 2.353c0 1.088.472 2.119 1.296 2.827.63.542 1.402.852 2.234.911a8.148 8.148 0 003.295 5.548v2.334l-10.497 4.07a1.127 1.127 0 00-.016.006c-.19.078-4.64 1.967-4.64 7.163v18.31A2.246 2.246 0 0012.023 60h8.374a.879.879 0 000-1.758h-1.891V40.934a.879.879 0 00-1.758 0v17.308h-4.725a.486.486 0 01-.485-.485v-18.31c0-3.958 3.339-5.448 3.544-5.536l6.309-2.445 2.771 5.555c.266.53.804.852 1.378.852.563 0 .861-.264 1.258-.546l.708 1.066-2.627 15.523a1.576 1.576 0 00.376 1.29l2.759 3.036h-3.515a.879.879 0 000 1.758h23.48a2.246 2.246 0 002.243-2.243v-8.264a.88.88 0 00-.879-.879zM36.958 30.828l-2.584 5.179-3.107-2.207 3.191-3.94 2.5.968zm-5.195 5.48l-.67 1.01H28.9l-.67-1.01 1.766-1.254 1.766 1.255zm-5.074-7.817v-1.645c1.067.43 2.209.63 3.323.63a8.25 8.25 0 003.287-.685v1.707l-3.302 4.076-3.308-4.083zm13.258-11.904c0 .575-.25 1.12-.684 1.494a2.047 2.047 0 01-1.015.467v-3.923c1.01.164 1.699 1.002 1.699 1.962zm-18.384 1.961c-1.021-.165-1.699-1.01-1.699-1.961 0-.94.779-1.705 1.7-1.918v3.88zm.047-5.67c-.28.033-.6.108-.84.19v-2.175c0-5.037 4.098-9.135 9.135-9.135 5.038 0 9.135 4.098 9.135 9.135v2.114a3.904 3.904 0 00-.792-.153c0-.848.007-.684-2.767-3.667a1.564 1.564 0 00-1.997-.243c-3.062 2-6.797 3.005-10.244 2.757a1.563 1.563 0 00-1.63 1.177zm1.711 6.362v-5.772c3.794.222 7.772-.905 10.985-2.963 1.273 1.366 1.962 2.083 2.184 2.355v6.38c0 3.568-2.91 6.478-6.478 6.478-4.007 0-6.69-3.108-6.69-6.478zm2.299 16.767l-2.584-5.179 2.495-.966 3.193 3.94-3.104 2.205zm1.008 18.099l2.544-15.031h1.65l2.543 15.03-3.368 3.707-3.369-3.706z" fill="#3B69CB"/></svg>