<svg width="60" height="60" fill="none" xmlns="http://www.w3.org/2000/svg"><g clip-path="url(#clip0_27_655)" fill="#3B69CB"><path d="M4.46 35.162v18.282a2.585 2.585 0 002.582 2.582 2.585 2.585 0 002.582-2.582V35.162a2.585 2.585 0 00-2.582-2.582 2.585 2.585 0 00-2.582 2.582zm3.403 0v18.282a.822.822 0 01-1.642 0V35.162a.822.822 0 011.642 0zm6.832-2.582a2.586 2.586 0 00-2.583 2.584v18.278a2.586 2.586 0 002.583 2.584 2.586 2.586 0 002.582-2.584V35.164a2.586 2.586 0 00-2.582-2.584zm.82 20.862a.823.823 0 01-.82.823.823.823 0 01-.822-.823V35.164c0-.453.369-.823.822-.823.452 0 .82.37.82.823v18.278zm4.25-18.28v18.282a2.585 2.585 0 002.582 2.582 2.585 2.585 0 002.583-2.582V35.162a2.585 2.585 0 00-2.583-2.582 2.585 2.585 0 00-2.582 2.582zm3.403 0v18.282a.822.822 0 01-1.642 0V35.162a.822.822 0 011.642 0zm4.25.002v18.278A2.586 2.586 0 0030 56.026a2.586 2.586 0 002.583-2.584V35.164A2.586 2.586 0 0030 32.58a2.586 2.586 0 00-2.582 2.584zm3.403 0v18.278a.823.823 0 01-.821.823.823.823 0 01-.821-.823V35.164c0-.453.368-.823.821-.823.453 0 .821.37.821.823zm4.249-.002v18.282a2.585 2.585 0 002.583 2.582 2.585 2.585 0 002.582-2.582V35.162a2.585 2.585 0 00-2.582-2.582 2.585 2.585 0 00-2.583 2.582zm3.404 0v18.282a.822.822 0 01-1.643 0V35.162a.822.822 0 011.643 0zm9.414 18.28V35.164a2.587 2.587 0 00-2.583-2.584 2.586 2.586 0 00-2.582 2.584v18.278a2.586 2.586 0 002.582 2.584 2.586 2.586 0 002.583-2.584zm-3.404 0V35.164c0-.453.369-.823.821-.823.453 0 .822.37.822.823v18.278a.823.823 0 01-.822.823.823.823 0 01-.82-.823zm11.056.002V35.162a2.585 2.585 0 00-2.582-2.582 2.585 2.585 0 00-2.582 2.582v18.282a2.585 2.585 0 002.582 2.582 2.585 2.585 0 002.582-2.582zm-3.403 0V35.162a.822.822 0 011.642 0v18.282a.822.822 0 01-1.642 0z"/><path d="M59.12 24.614h-5.06v-1.152a2.915 2.915 0 00-2.91-2.913 2.9 2.9 0 00-2.065.861l-16.06-8.254a3.77 3.77 0 00.753-2.037 3.773 3.773 0 00-1.903-3.533c-.527-.301-.882-.848-.972-1.47H33.6c1.781 0 3.23-1.45 3.23-3.231V.88a.88.88 0 00-.88-.881H24.049a.88.88 0 00-.88.88v2.005a3.234 3.234 0 003.23 3.23h2.734c.1 1.256.797 2.387 1.869 3a2.023 2.023 0 011.02 1.895 2.023 2.023 0 01-.613 1.314l-1.006-.517a.88.88 0 00-.806 0l-1.013.52a2.01 2.01 0 01-.61-1.448.88.88 0 10-1.76 0c0 .823.272 1.624.76 2.276l-16.06 8.256a2.9 2.9 0 00-2.064-.862 2.915 2.915 0 00-2.911 2.913v1.152H.881a.88.88 0 00-.881.88V59.12c0 .486.394.88.88.88h40.236a.88.88 0 100-1.761H1.76V30.368h11.576a.88.88 0 100-1.762H1.761v-2.231h35.832a.88.88 0 100-1.761H11.76v-1.152c0-.165-.015-.327-.041-.485l16.77-8.62a3.811 3.811 0 003.02-.002l16.772 8.622c-.026.158-.04.32-.04.485v1.152h-7.125a.88.88 0 100 1.76h17.123v2.232h-41.38a.88.88 0 000 1.762h41.38v27.87h-13.6a.88.88 0 000 1.762h14.48a.88.88 0 00.881-.88V25.494a.88.88 0 00-.88-.88zM24.93 2.884V1.762h10.14v1.124a1.47 1.47 0 01-1.469 1.469H26.4c-.81 0-1.47-.66-1.47-1.47zM7.7 24.615v-1.152c0-.635.516-1.152 1.15-1.152.633 0 1.149.517 1.149 1.152v1.152H7.7zm42.301-1.152c0-.635.516-1.152 1.15-1.152.633 0 1.149.517 1.149 1.152v1.152H50v-1.152z"/></g><defs><clipPath id="clip0_27_655"><path fill="#fff" d="M0 0h60v60H0z"/></clipPath></defs></svg>