<svg width="40" height="40" fill="none" xmlns="http://www.w3.org/2000/svg"><g clip-path="url(#clip0_35_1063)"><path d="M20 40c11.046 0 20-8.954 20-20S31.046 0 20 0 0 8.954 0 20s8.954 20 20 20z" fill="#3B69CB"/><path d="M10.931 18.605l17.737-6.525c.823-.284 1.542.191 1.276 1.38l.001-.002-3.02 13.576c-.224.963-.823 1.197-1.662.743l-4.599-3.234-2.218 2.039c-.245.234-.452.431-.928.431l.327-4.465L26.37 15.2c.37-.312-.083-.487-.572-.177l-10.534 6.328L10.724 20c-.986-.298-1.007-.94.208-1.394z" fill="#fff"/></g><defs><clipPath id="clip0_35_1063"><path fill="#fff" d="M0 0h40v40H0z"/></clipPath></defs></svg>