<svg width="40" height="40" fill="none" xmlns="http://www.w3.org/2000/svg"><path d="M20 40c11.046 0 20-8.954 20-20S31.046 0 20 0 0 8.954 0 20s8.954 20 20 20z" fill="#3B69CB"/><path d="M27.112 12.942a10.062 10.062 0 00-12.965-1.063 9.922 9.922 0 00-3.866 5.71 9.853 9.853 0 00.806 6.834l-1.062 5.112a.375.375 0 00.06.296.386.386 0 00.411.158l5.05-1.187a10.074 10.074 0 006.846.749 10.005 10.005 0 005.71-3.819 9.865 9.865 0 00-.99-12.79zM25.537 25.41a7.857 7.857 0 01-4.275 2.168 7.89 7.89 0 01-4.747-.713l-.704-.345-3.097.727.01-.038.641-3.092-.344-.675a7.716 7.716 0 01-.756-4.741 7.748 7.748 0 012.196-4.277A7.865 7.865 0 0120 12.149a7.865 7.865 0 015.579 2.315 7.737 7.737 0 012.253 5.481 7.739 7.739 0 01-2.294 5.465z" fill="#fff"/><path d="M25.262 23.141c-.38.593-.979 1.319-1.732 1.499-1.32.316-3.346.01-5.866-2.32l-.031-.028c-2.217-2.039-2.792-3.735-2.653-5.081.077-.764.719-1.455 1.26-1.906a.722.722 0 011.127.256l.816 1.819a.706.706 0 01-.09.727l-.413.531a.701.701 0 00-.064.786c.231.402.785.993 1.399 1.54.69.619 1.454 1.184 1.938 1.377a.706.706 0 00.768-.16l.478-.478a.734.734 0 01.715-.182l1.938.546a.735.735 0 01.47.437.721.721 0 01-.06.637z" fill="#fff"/></svg>